ply
format ascii 1.0
comment Created by Blender 3.5.0 - www.blender.org
element vertex 284
property float x
property float y
property float z
property float nx
property float ny
property float nz
property uchar red
property uchar green
property uchar blue
property uchar alpha
element face 488
property list uchar uint vertex_indices
end_header
0.458727 -0.196951 -0.363922 0.577350 -0.577350 0.577350 255 255 255 255
0.458727 0.198714 -0.363922 0.577350 0.577350 0.577350 255 255 255 255
-0.452691 0.198714 -0.363922 -0.577350 0.577350 0.577350 255 255 255 255
-0.452691 -0.196951 -0.363922 -0.577350 -0.577350 0.577350 31 31 31 255
-0.452691 -0.196951 -0.410442 -0.577350 -0.577350 -0.577350 255 255 255 255
-0.452691 0.198714 -0.410442 -0.577350 0.577350 -0.577350 255 255 255 255
0.458727 0.198714 -0.410442 0.577350 0.577350 -0.577350 255 255 255 255
0.458727 -0.196951 -0.410442 0.577350 -0.577350 -0.577350 255 255 255 255
-0.378571 -0.120695 -0.410442 0.577350 0.577350 0.577350 255 255 255 255
-0.418035 -0.120695 -0.410442 -0.577350 0.577350 0.577350 255 255 255 255
-0.418035 -0.160642 -0.410442 -0.577350 -0.577350 0.577350 255 255 255 255
-0.378571 -0.160642 -0.410442 0.577350 -0.577350 0.577350 255 255 255 255
-0.378571 -0.120695 -0.763095 0.577350 0.577350 -0.577350 255 255 255 255
-0.378571 -0.160642 -0.763095 0.577350 -0.577350 -0.577350 255 255 255 255
-0.418035 -0.160642 -0.763095 -0.577350 -0.577350 -0.577350 255 255 255 255
-0.418035 -0.120695 -0.763095 -0.577350 0.577350 -0.577350 255 255 255 255
-0.378571 0.161609 -0.410442 0.577350 0.577350 0.577350 255 255 255 255
-0.418035 0.161609 -0.410442 -0.577350 0.577350 0.577350 255 255 255 255
-0.418035 0.121662 -0.410442 -0.577350 -0.577350 0.577350 255 255 255 255
-0.378571 0.121662 -0.410442 0.577350 -0.577350 0.577350 255 255 255 255
-0.378571 0.161609 -0.763095 0.577350 0.577350 -0.577350 255 255 255 255
-0.378571 0.121662 -0.763095 0.577350 -0.577350 -0.577350 255 255 255 255
-0.418035 0.121662 -0.763095 -0.577350 -0.577350 -0.577350 255 255 255 255
-0.418035 0.161609 -0.763095 -0.577350 0.577350 -0.577350 255 255 255 255
0.425610 -0.120695 -0.410442 0.577350 0.577350 0.577350 255 255 255 255
0.386147 -0.120695 -0.410442 -0.577350 0.577350 0.577350 255 255 255 255
0.386147 -0.160642 -0.410442 -0.577350 -0.577350 0.577350 255 255 255 255
0.425610 -0.160642 -0.410442 0.577350 -0.577350 0.577350 255 255 255 255
0.425610 -0.120695 -0.763095 0.577350 0.577350 -0.577350 255 255 255 255
0.425610 -0.160642 -0.763095 0.577350 -0.577350 -0.577350 255 255 255 255
0.386147 -0.160642 -0.763095 -0.577350 -0.577350 -0.577350 255 255 255 255
0.386147 -0.120695 -0.763095 -0.577350 0.577350 -0.577350 255 255 255 255
0.425610 0.161609 -0.410442 0.577350 0.577350 0.577350 255 255 255 255
0.386147 0.161609 -0.410442 -0.577350 0.577350 0.577350 255 255 255 255
0.386147 0.121662 -0.410442 -0.577350 -0.577350 0.577350 255 255 255 255
0.425610 0.121662 -0.410442 0.577350 -0.577350 0.577350 255 255 255 255
0.425610 0.161609 -0.763095 0.577350 0.577350 -0.577350 255 255 255 255
0.425610 0.121662 -0.763095 0.577350 -0.577350 -0.577350 255 255 255 255
0.386147 0.121662 -0.763095 -0.577350 -0.577350 -0.577350 255 255 255 255
0.386147 0.161609 -0.763095 -0.577350 0.577350 -0.577350 255 255 255 255
-0.215992 -0.126649 -0.363922 0.577350 -0.577350 -0.577350 252 252 252 255
-0.378821 -0.126649 -0.363922 -0.577351 -0.577350 -0.577350 226 226 226 255
-0.378821 0.125373 -0.363922 -0.577350 0.577350 -0.577350 255 255 255 255
-0.215992 0.125373 -0.363922 0.577351 0.577350 -0.577350 254 254 254 255
-0.215992 -0.126649 -0.127263 0.649113 -0.730187 0.213259 22 22 22 255
-0.378821 -0.126649 -0.127263 -0.649113 -0.730187 0.213259 255 255 255 255
-0.215992 0.125373 -0.103944 0.577350 0.577350 0.577350 255 255 255 255
-0.215992 -0.111757 -0.103944 0.613266 -0.379547 0.692711 208 208 208 255
-0.378821 0.125373 -0.103944 -0.577350 0.577350 0.577350 255 255 255 255
-0.378821 -0.111757 -0.103944 -0.613266 -0.379547 0.692711 255 255 255 255
0.121812 0.049818 -0.363922 0.667201 -0.438912 -0.601830 217 217 217 255
-0.056265 0.049818 -0.363922 -0.667201 -0.438912 -0.601830 211 211 211 255
-0.056265 0.110828 -0.363922 -0.667201 0.438912 -0.601830 1 1 1 255
0.121812 0.110828 -0.363922 0.667201 0.438912 -0.601830 210 210 210 255
-0.056265 0.110828 -0.336870 -0.667201 0.438912 0.601830 193 193 193 255
-0.056265 0.049818 -0.336870 -0.667201 -0.438912 0.601830 0 0 0 255
-0.008157 0.071357 -0.336870 -0.301511 -0.301511 0.904534 0 0 0 255
-0.008157 0.089289 -0.336870 -0.301511 0.301511 0.904534 5 5 5 255
0.121812 0.049818 -0.336870 0.667201 -0.438912 0.601830 4 4 4 255
0.080369 0.031950 -0.336870 0.151081 -0.732024 0.664316 3 3 3 255
0.080369 0.031950 -0.363922 0.151081 -0.732024 -0.664316 255 255 255 255
0.121812 0.110828 -0.336870 0.667201 0.438912 0.601830 255 255 255 255
-0.014822 0.128696 -0.363922 -0.151082 0.732024 -0.664316 255 255 255 255
0.080369 0.128696 -0.363922 0.151082 0.732024 -0.664316 255 255 255 255
0.073704 0.071357 -0.336870 0.301511 -0.301511 0.904534 0 0 0 255
0.073704 0.089289 -0.336870 0.301511 0.301511 0.904534 217 217 217 255
0.073704 0.089289 -0.307387 0.313876 0.731771 -0.604973 255 255 255 255
0.073704 0.071357 -0.307387 0.313876 -0.731771 -0.604973 255 255 255 255
-0.008157 0.089289 -0.307387 -0.313876 0.731771 -0.604973 255 255 255 255
-0.149612 0.099319 -0.292895 -0.601488 0.583696 -0.545446 255 255 255 255
0.215159 0.099319 -0.292895 0.601488 0.583696 -0.545446 255 255 255 255
-0.008157 0.071357 -0.307387 -0.313876 -0.731771 -0.604973 194 194 194 255
0.215159 0.061327 -0.292895 0.601488 -0.583696 -0.545446 3 3 3 255
0.215159 0.099319 -0.086874 0.577350 0.577350 0.577350 255 255 255 255
0.215159 0.061327 -0.086874 0.577350 -0.577351 0.577350 255 255 255 255
-0.149612 0.061327 -0.292895 -0.601488 -0.583697 -0.545446 255 255 255 255
-0.149612 0.099319 -0.086874 -0.577350 0.577350 0.577350 255 255 255 255
-0.149612 0.061327 -0.086874 -0.577350 -0.577350 0.577350 255 255 255 255
0.196597 0.061327 -0.274333 -0.301511 -0.904534 0.301511 6 6 6 255
0.196597 0.061327 -0.105435 -0.301511 -0.904534 -0.301512 255 255 255 255
0.196597 0.066949 -0.105435 -0.577350 -0.577350 -0.577350 255 255 255 255
0.196597 0.066949 -0.274333 -0.577350 -0.577350 0.577350 13 13 13 255
-0.131050 0.061327 -0.274333 0.301511 -0.904534 0.301512 25 25 25 255
-0.131050 0.061327 -0.105435 0.301511 -0.904534 -0.301511 255 255 255 255
-0.131050 0.066949 -0.274333 0.577350 -0.577350 0.577350 9 9 9 255
-0.131050 0.066949 -0.105435 0.577350 -0.577350 -0.577350 255 255 255 255
-0.014822 0.128696 -0.336870 -0.151081 0.732024 0.664316 255 255 255 255
0.080369 0.128696 -0.336870 0.151082 0.732024 0.664316 255 255 255 255
-0.014822 0.031950 -0.363922 -0.151081 -0.732024 -0.664316 255 255 255 255
-0.014822 0.031950 -0.336870 -0.151082 -0.732024 0.664316 0 0 0 255
0.161990 -0.171254 -0.363922 0.577350 -0.577350 -0.577350 255 255 255 255
-0.113434 -0.171254 -0.363922 -0.577350 -0.577350 -0.577350 255 255 255 255
-0.113434 -0.051687 -0.363922 -0.577350 0.577350 -0.577350 255 255 255 255
0.161990 -0.051687 -0.363922 0.577350 0.577350 -0.577350 255 255 255 255
0.161990 -0.171254 -0.351848 0.582855 -0.602882 0.544805 255 255 255 255
0.161990 -0.051687 -0.339716 0.572219 0.549850 0.608465 255 255 255 255
-0.113434 -0.051687 -0.339716 -0.572218 0.549851 0.608466 255 255 255 255
-0.113434 -0.171254 -0.351848 -0.582855 -0.602882 0.544805 255 255 255 255
0.329907 -0.127768 -0.363922 0.577350 -0.577350 -0.577350 255 255 255 255
0.213778 -0.127768 -0.363922 -0.577351 -0.577350 -0.577351 141 141 141 255
0.213778 0.029446 -0.363922 -0.577350 0.577350 -0.577350 255 255 255 255
0.329907 0.029446 -0.363922 0.577351 0.577350 -0.577351 24 24 24 255
0.329907 -0.127768 -0.360660 0.577351 -0.577350 0.577351 255 255 255 255
0.329907 0.029446 -0.360660 0.577350 0.577350 0.577350 26 26 26 255
0.213778 0.029446 -0.360660 -0.577351 0.577350 0.577351 255 255 255 255
0.213778 -0.127768 -0.360660 -0.577350 -0.577350 0.577350 138 138 138 255
0.283458 -0.038950 -0.360660 0.660747 0.361351 -0.657904 255 255 255 255
0.256351 -0.046264 -0.360660 -0.752833 -0.020097 -0.657904 1 1 1 255
0.259210 -0.032863 -0.360660 -0.577046 0.547038 -0.606438 255 255 255 255
0.274245 -0.028806 -0.360660 0.223519 0.763067 -0.606438 255 255 255 255
0.283458 -0.038950 -0.345295 0.614227 0.409223 0.674731 8 8 8 255
0.274245 -0.028806 -0.348975 0.202744 0.845042 0.494771 130 130 130 255
0.259210 -0.032863 -0.348975 -0.600329 0.628337 0.494771 128 128 128 255
0.256351 -0.046264 -0.345295 -0.736710 0.044678 0.674731 7 7 7 255
0.266538 -0.070255 -0.360660 -0.270682 -0.754155 -0.598315 230 230 230 255
0.286723 -0.064808 -0.360660 0.613322 -0.515611 -0.598315 255 255 255 255
0.286723 -0.064808 -0.349127 0.647347 -0.610544 0.456265 241 241 241 255
0.266538 -0.070255 -0.349127 -0.252331 -0.853318 0.456265 152 152 152 255
0.260554 -0.061838 -0.360660 -0.671813 -0.316931 -0.669494 89 89 89 255
0.260554 -0.061838 -0.345295 -0.605989 -0.394200 0.690929 9 9 9 255
0.287660 -0.054523 -0.360660 0.740051 0.064053 -0.669494 255 255 255 255
0.287660 -0.054523 -0.345295 0.722034 -0.035840 0.690929 134 134 134 255
-0.243415 0.124668 -0.262402 0.505111 -0.833461 -0.224066 255 255 255 255
-0.243410 0.124670 -0.248629 0.590856 -0.318359 0.741308 255 255 255 255
-0.251914 0.126076 -0.246283 -0.469162 -0.108914 0.876370 255 255 255 255
-0.251914 0.126076 -0.260045 -0.781837 -0.604611 -0.152239 255 255 255 255
-0.219000 0.196884 -0.350834 0.739680 -0.308413 0.598126 255 255 255 255
-0.218994 0.196886 -0.364586 -0.223797 -0.659320 -0.717782 255 255 255 255
-0.174036 0.201391 -0.386082 -0.143713 -0.728791 -0.669485 255 255 255 255
-0.174036 0.201391 -0.372320 0.302149 -0.680039 0.668022 179 179 179 255
-0.246456 0.161211 -0.311334 -0.511999 0.720972 0.466966 255 255 255 255
-0.238699 0.157999 -0.314240 0.905961 0.210600 0.367263 255 255 255 255
-0.226003 0.201904 -0.347357 -0.251292 0.795004 0.552106 255 255 255 255
-0.238699 0.157999 -0.328003 0.256057 -0.802109 -0.539496 255 255 255 255
-0.246456 0.161211 -0.325096 -0.895460 -0.194662 -0.400322 255 255 255 255
-0.226003 0.201904 -0.361119 -0.689873 0.504509 -0.519179 255 255 255 255
-0.125297 0.206720 -0.397854 0.078666 -0.612638 -0.786439 255 255 255 255
-0.125297 0.206720 -0.384092 -0.074823 -0.764897 0.639792 255 255 255 255
-0.176873 0.209531 -0.372320 0.124837 0.785802 0.605748 255 255 255 255
-0.176873 0.209531 -0.386082 -0.337264 0.623306 -0.705509 255 255 255 255
-0.124400 0.215293 -0.384092 -0.069407 0.814992 0.575300 255 255 255 255
-0.079941 0.201119 -0.361102 -0.633170 -0.604973 0.482808 198 198 198 255
-0.076785 0.209140 -0.359231 -0.155776 0.855801 0.493294 255 255 255 255
-0.124400 0.215293 -0.397854 0.105731 0.656182 -0.747159 255 255 255 255
-0.079941 0.201119 -0.374864 0.363669 -0.690660 -0.625087 248 248 248 255
-0.048907 0.185911 -0.326535 0.199995 -0.859535 -0.470321 255 255 255 255
-0.048907 0.185911 -0.312773 -0.932581 -0.036530 0.359108 255 255 255 255
-0.076785 0.209140 -0.372993 0.615284 0.585206 -0.528166 255 255 255 255
-0.042655 0.191844 -0.322009 0.865920 0.361151 -0.346054 255 255 255 255
-0.042655 0.191844 -0.308247 0.188172 0.842501 0.504761 255 255 255 255
-0.028459 0.156131 -0.266995 0.499648 0.707501 0.499794 255 255 255 255
-0.028459 0.156131 -0.280757 0.889823 -0.200772 -0.409763 255 255 255 255
-0.021035 0.116771 -0.223001 0.662114 0.536111 0.523632 255 255 255 255
-0.029520 0.117453 -0.224330 -0.717712 0.460225 0.522573 255 255 255 255
-0.028699 0.097446 -0.207660 -0.570937 -0.290448 0.767901 255 255 255 255
-0.020239 0.095795 -0.207660 0.521415 -0.451074 0.724333 255 255 255 255
-0.036994 0.154923 -0.270916 -0.868158 0.268382 0.417460 255 255 255 255
-0.036994 0.154923 -0.284678 -0.420124 -0.766644 -0.485543 255 255 255 255
-0.028699 0.097446 -0.221422 -0.673211 -0.665801 -0.321707 255 255 255 255
-0.020239 0.095795 -0.221422 0.571620 -0.745592 -0.342553 255 255 255 255
-0.029520 0.117453 -0.238093 -0.660146 -0.581966 -0.474892 255 255 255 255
-0.021035 0.116771 -0.236764 0.794363 -0.343767 -0.500812 255 255 255 255
0.400302 0.073104 -0.361886 0.335562 -0.818638 -0.466080 153 153 153 255
0.327065 0.097532 -0.361886 -0.759810 -0.453274 -0.466080 30 30 30 255
0.330770 0.108638 -0.363991 -0.400214 0.624814 -0.670400 124 124 124 255
0.404006 0.084210 -0.363991 0.695161 0.259451 -0.670400 255 255 255 255
0.406732 0.092381 -0.248852 0.400212 -0.624814 0.670401 255 255 255 255
0.410437 0.103488 -0.250957 0.759811 0.453274 0.466080 255 255 255 255
0.337200 0.127916 -0.250957 -0.335563 0.818638 0.466079 255 255 255 255
0.333495 0.116809 -0.248852 -0.695161 -0.259451 0.670401 220 220 220 255
0.338819 0.095794 -0.350371 0.021208 -0.889313 0.456806 0 0 0 255
0.389858 0.078770 -0.350371 -0.550829 -0.698507 0.456810 0 0 0 255
0.390927 0.081974 -0.350978 -0.695163 -0.259450 0.670398 0 0 0 255
0.339888 0.098998 -0.350978 0.400209 -0.624817 0.670400 0 0 0 255
0.359657 0.112066 -0.295063 -0.240214 0.940585 -0.239994 6 6 6 255
0.362152 0.113752 -0.281776 0.232859 0.971900 -0.034456 71 71 71 255
0.371887 0.142938 -0.364247 -0.309282 0.826662 -0.470079 255 255 255 255
0.369159 0.134761 -0.364403 -0.701659 -0.248391 -0.667815 255 255 255 255
0.343939 0.111143 -0.260367 -0.012552 -0.990533 -0.136699 0 0 0 255
0.394978 0.094119 -0.260367 -0.584592 -0.799729 -0.136700 254 254 254 255
0.396047 0.097324 -0.260974 -0.759812 -0.453273 -0.466078 254 254 254 255
0.345008 0.114348 -0.260974 0.335564 -0.818638 -0.466078 0 0 0 255
0.382962 0.104293 -0.295063 0.741156 0.627749 -0.237946 1 1 1 255
0.381978 0.107139 -0.281776 0.397250 0.916979 -0.036625 87 87 87 255
0.388986 0.128148 -0.364403 0.420742 -0.622278 -0.660111 255 255 255 255
0.391713 0.136325 -0.364247 0.749128 0.471071 -0.465724 255 255 255 255
-0.297407 -0.127066 -0.264340 0.000000 1.000000 0.000000 255 255 255 255
-0.297407 -0.127066 -0.250643 -0.000003 0.304648 0.952465 255 255 255 255
-0.287721 -0.127066 -0.254655 0.673495 0.304640 0.673497 255 255 255 255
-0.283709 -0.127066 -0.264340 0.952466 0.304645 0.000001 255 255 255 255
-0.311104 -0.127066 -0.264340 -0.952465 0.304648 -0.000000 255 255 255 255
-0.307092 -0.127066 -0.254655 -0.673492 0.304640 0.673500 255 255 255 255
-0.307092 -0.127066 -0.274025 -0.673496 0.304646 -0.673494 255 255 255 255
-0.297407 -0.127066 -0.278037 -0.000001 0.304645 -0.952466 255 255 255 255
-0.287721 -0.127066 -0.274025 0.673497 0.304646 -0.673493 255 255 255 255
-0.303794 -0.128860 -0.270727 -0.420287 -0.804188 -0.420287 255 255 255 255
-0.297407 -0.128860 -0.273372 0.000000 -0.804185 -0.594379 255 255 255 255
-0.297407 -0.129931 -0.273372 0.000000 -0.630263 -0.776381 255 255 255 255
-0.303794 -0.129931 -0.270727 -0.548985 -0.630262 -0.548986 255 255 255 255
-0.291019 -0.128860 -0.270727 0.420287 -0.804187 -0.420288 255 255 255 255
-0.288374 -0.128860 -0.264340 0.594378 -0.804186 0.000001 255 255 255 255
-0.288374 -0.129931 -0.264340 0.776382 -0.630263 0.000001 255 255 255 255
-0.291019 -0.129931 -0.270727 0.548985 -0.630262 -0.548986 255 255 255 255
-0.291019 -0.128860 -0.257953 0.420288 -0.804187 0.420288 255 255 255 255
-0.291019 -0.129931 -0.257953 0.548985 -0.630262 0.548986 255 255 255 255
-0.305717 -0.128860 -0.256029 -0.309347 -0.899227 0.309347 255 255 255 255
-0.297407 -0.128860 -0.252587 -0.000002 -0.899222 0.437493 255 255 255 255
-0.289096 -0.128860 -0.256029 0.309349 -0.899227 0.309344 255 255 255 255
-0.285653 -0.128860 -0.264340 0.437489 -0.899224 0.000001 255 255 255 255
-0.289096 -0.128860 -0.272651 0.309352 -0.899223 -0.309353 255 255 255 255
-0.297407 -0.128860 -0.276093 -0.000001 -0.899224 -0.437488 255 255 255 255
-0.305717 -0.128860 -0.272651 -0.309352 -0.899223 -0.309354 255 255 255 255
-0.309160 -0.128860 -0.264340 -0.437492 -0.899222 -0.000000 255 255 255 255
-0.297407 -0.128860 -0.274866 0.000000 -1.000000 0.000000 255 255 255 255
-0.304850 -0.128860 -0.271783 0.000000 -1.000000 0.000000 255 255 255 255
-0.304850 -0.128860 -0.256896 0.000000 -1.000000 0.000000 255 255 255 255
-0.297407 -0.128860 -0.253813 0.000000 -1.000000 0.000000 255 255 255 255
-0.286880 -0.128860 -0.264340 0.000000 -1.000000 0.000000 255 255 255 255
-0.289963 -0.128860 -0.271783 0.000000 -1.000000 0.000000 255 255 255 255
-0.307933 -0.128860 -0.264340 0.000000 -1.000000 0.000000 255 255 255 255
-0.289963 -0.128860 -0.256896 0.000000 -1.000000 0.000000 255 255 255 255
-0.303794 -0.128860 -0.257953 -0.420288 -0.804187 0.420288 255 255 255 255
-0.297407 -0.128860 -0.255307 0.000000 -0.804186 0.594378 255 255 255 255
-0.306439 -0.128860 -0.264340 -0.594378 -0.804186 0.000001 255 255 255 255
-0.297407 -0.129931 -0.264340 0.000000 -1.000000 0.000000 255 255 255 255
-0.297407 -0.129931 -0.255307 -0.000000 -0.630263 0.776382 255 255 255 255
-0.306439 -0.129931 -0.264340 -0.776382 -0.630263 0.000001 255 255 255 255
-0.303794 -0.129931 -0.257953 -0.548985 -0.630262 0.548985 255 255 255 255
0.081381 -0.069539 -0.341528 0.581058 -0.492442 -0.647976 1 1 1 255
-0.069854 -0.069539 -0.341528 -0.581058 -0.492441 -0.647976 255 255 255 255
-0.069854 -0.057839 -0.340340 -0.573816 0.652054 -0.495541 255 255 255 255
0.081381 -0.057839 -0.340340 0.573816 0.652053 -0.495542 77 77 77 255
0.081381 -0.070148 -0.337982 0.573816 -0.652054 0.495541 2 2 2 255
0.081381 -0.058447 -0.336794 0.581058 0.492442 0.647976 255 255 255 255
-0.069854 -0.058447 -0.336794 -0.581058 0.492441 0.647976 255 255 255 255
-0.069854 -0.070148 -0.337982 -0.573816 -0.652054 0.495541 255 255 255 255
0.081718 -0.164624 -0.351176 0.581586 -0.489115 -0.650019 234 234 234 255
-0.098161 -0.164624 -0.351176 -0.581586 -0.489115 -0.650019 255 255 255 255
-0.098161 -0.087303 -0.343330 -0.573339 0.654680 -0.492622 255 255 255 255
0.081718 -0.087303 -0.343330 0.573339 0.654679 -0.492623 197 197 197 255
0.081718 -0.165182 -0.348099 0.573339 -0.654679 0.492623 235 235 235 255
0.081718 -0.087861 -0.340253 0.581586 0.489115 0.650019 98 98 98 255
-0.098161 -0.087861 -0.340253 -0.581586 0.489115 0.650019 255 255 255 255
-0.098161 -0.165182 -0.348099 -0.573339 -0.654680 0.492622 255 255 255 255
0.151829 -0.164235 -0.351136 0.592553 -0.422411 -0.685893 209 209 209 255
0.100817 -0.164235 -0.351136 -0.592553 -0.422412 -0.685893 144 144 144 255
0.100817 -0.087638 -0.343364 -0.564700 0.702723 -0.432775 255 255 255 255
0.151829 -0.087638 -0.343364 0.564699 0.702724 -0.432774 255 255 255 255
0.151829 -0.165143 -0.348764 0.564699 -0.702724 0.432775 216 216 216 255
0.151829 -0.088546 -0.340992 0.592553 0.422410 0.685894 255 255 255 255
0.100817 -0.088546 -0.340992 -0.592553 0.422411 0.685894 255 255 255 255
0.100817 -0.165143 -0.348764 -0.564700 -0.702723 0.432776 159 159 159 255
0.139878 -0.067194 -0.341420 0.577349 -0.516115 -0.632687 255 255 255 255
0.134943 -0.067194 -0.341420 -0.577349 -0.516115 -0.632687 255 255 255 255
0.134943 -0.062514 -0.340945 -0.577351 0.632689 -0.516111 255 255 255 255
0.139878 -0.062514 -0.340945 0.577351 0.632689 -0.516111 255 255 255 255
0.139878 -0.067278 -0.340595 0.577350 -0.632682 0.516121 255 255 255 255
0.139878 -0.062597 -0.340120 0.577351 0.516117 0.632684 255 255 255 255
0.134943 -0.062597 -0.340120 -0.577351 0.516117 0.632684 255 255 255 255
0.134943 -0.067278 -0.340595 -0.577350 -0.632682 0.516121 255 255 255 255
0.128307 -0.067194 -0.341420 0.577349 -0.516115 -0.632687 255 255 255 255
0.123372 -0.067194 -0.341420 -0.577349 -0.516115 -0.632687 255 255 255 255
0.123372 -0.062514 -0.340945 -0.577351 0.632689 -0.516111 255 255 255 255
0.128307 -0.062514 -0.340945 0.577351 0.632689 -0.516111 255 255 255 255
0.128307 -0.067278 -0.340595 0.577350 -0.632682 0.516121 255 255 255 255
0.128307 -0.062597 -0.340120 0.577351 0.516117 0.632684 255 255 255 255
0.123372 -0.062597 -0.340120 -0.577351 0.516117 0.632684 255 255 255 255
0.123372 -0.067278 -0.340595 -0.577350 -0.632682 0.516121 255 255 255 255
0.115922 -0.067194 -0.341420 0.577349 -0.516115 -0.632687 255 255 255 255
0.110987 -0.067194 -0.341420 -0.577349 -0.516115 -0.632687 255 255 255 255
0.110987 -0.062514 -0.340945 -0.577351 0.632689 -0.516111 255 255 255 255
0.115922 -0.062514 -0.340945 0.577350 0.632689 -0.516111 255 255 255 255
0.115922 -0.067278 -0.340595 0.577350 -0.632682 0.516121 255 255 255 255
0.115922 -0.062597 -0.340120 0.577351 0.516117 0.632684 255 255 255 255
0.110987 -0.062597 -0.340120 -0.577351 0.516117 0.632684 255 255 255 255
0.110987 -0.067278 -0.340595 -0.577350 -0.632682 0.516121 255 255 255 255
-0.085420 -0.069539 -0.341528 0.581058 -0.492442 -0.647976 255 255 255 255
-0.097948 -0.069539 -0.341528 -0.581058 -0.492441 -0.647976 255 255 255 255
-0.097948 -0.057839 -0.340340 -0.573816 0.652054 -0.495541 255 255 255 255
-0.085420 -0.057839 -0.340340 0.573816 0.652054 -0.495541 255 255 255 255
-0.085420 -0.070148 -0.337982 0.573816 -0.652054 0.495541 255 255 255 255
-0.085420 -0.058447 -0.336794 0.581058 0.492442 0.647976 255 255 255 255
-0.097948 -0.058447 -0.336794 -0.581058 0.492442 0.647976 255 255 255 255
-0.097948 -0.070148 -0.337982 -0.573816 -0.652054 0.495541 255 255 255 255
3 0 1 2
3 0 2 3
3 4 3 2
3 4 2 5
3 5 2 1
3 5 1 6
3 6 7 4
3 6 4 5
3 7 0 3
3 7 3 4
3 6 1 0
3 6 0 7
3 8 9 10
3 8 10 11
3 12 13 14
3 12 14 15
3 11 10 14
3 11 14 13
3 8 11 13
3 8 13 12
3 10 9 15
3 10 15 14
3 9 8 12
3 9 12 15
3 16 17 18
3 16 18 19
3 20 21 22
3 20 22 23
3 19 18 22
3 19 22 21
3 16 19 21
3 16 21 20
3 18 17 23
3 18 23 22
3 17 16 20
3 17 20 23
3 24 25 26
3 24 26 27
3 28 29 30
3 28 30 31
3 27 26 30
3 27 30 29
3 24 27 29
3 24 29 28
3 26 25 31
3 26 31 30
3 25 24 28
3 25 28 31
3 32 33 34
3 32 34 35
3 36 37 38
3 36 38 39
3 35 34 38
3 35 38 37
3 32 35 37
3 32 37 36
3 34 33 39
3 34 39 38
3 33 32 36
3 33 36 39
3 40 41 42
3 40 42 43
3 41 40 44
3 41 44 45
3 44 40 43
3 43 46 47
3 43 47 44
3 43 42 48
3 43 48 46
3 47 46 48
3 47 48 49
3 50 51 52
3 50 52 53
3 54 55 56
3 54 56 57
3 50 58 59
3 50 59 60
3 52 51 55
3 52 55 54
3 50 53 61
3 50 61 58
3 53 52 62
3 53 62 63
3 64 65 66
3 64 66 67
3 58 61 65
3 58 65 64
3 55 58 64
3 55 64 56
3 61 54 57
3 61 57 65
3 66 68 69
3 66 69 70
3 56 64 67
3 56 67 71
3 65 57 68
3 65 68 66
3 57 56 71
3 57 71 68
3 72 70 73
3 72 73 74
3 68 71 75
3 68 75 69
3 67 66 70
3 67 70 72
3 71 67 72
3 71 72 75
3 74 73 76
3 74 76 77
3 78 79 80
3 78 80 81
3 70 69 76
3 70 76 73
3 69 75 77
3 69 77 76
3 78 82 75
3 78 75 72
3 83 79 74
3 83 74 77
3 79 78 72
3 79 72 74
3 82 83 77
3 82 77 75
3 84 81 80
3 84 80 85
3 82 78 81
3 82 81 84
3 83 82 84
3 83 84 85
3 79 83 85
3 79 85 80
3 63 62 86
3 63 86 87
3 88 60 59
3 88 59 89
3 61 53 63
3 61 63 87
3 58 55 89
3 58 89 59
3 51 50 60
3 51 60 88
3 55 51 88
3 55 88 89
3 52 54 86
3 52 86 62
3 54 61 87
3 54 87 86
3 90 91 92
3 90 92 93
3 94 95 96
3 94 96 97
3 90 93 95
3 90 95 94
3 91 90 94
3 91 94 97
3 93 92 96
3 93 96 95
3 92 91 97
3 92 97 96
3 98 99 100
3 98 100 101
3 102 103 104
3 102 104 105
3 101 100 104
3 101 104 103
3 100 99 105
3 100 105 104
3 98 101 103
3 98 103 102
3 99 98 102
3 99 102 105
3 106 107 108
3 106 108 109
3 110 111 112
3 110 112 113
3 106 109 111
3 106 111 110
3 114 115 116
3 114 116 117
3 109 108 112
3 109 112 111
3 118 114 117
3 118 117 119
3 108 107 113
3 108 113 112
3 107 118 119
3 107 119 113
3 115 120 121
3 115 121 116
3 120 106 110
3 120 110 121
3 116 121 119
3 116 119 117
3 121 110 113
3 121 113 119
3 115 114 118
3 115 118 120
3 120 118 107
3 120 107 106
3 122 123 124
3 122 124 125
3 126 127 128
3 126 128 129
3 130 131 126
3 130 126 132
3 133 134 135
3 133 135 127
3 131 133 127
3 131 127 126
3 134 130 132
3 134 132 135
3 129 128 136
3 129 136 137
3 135 132 138
3 135 138 139
3 132 126 129
3 132 129 138
3 127 135 139
3 127 139 128
3 140 137 141
3 140 141 142
3 139 138 140
3 139 140 143
3 138 129 137
3 138 137 140
3 128 139 143
3 128 143 136
3 141 144 145
3 141 145 146
3 136 143 147
3 136 147 144
3 137 136 144
3 137 144 141
3 143 140 142
3 143 142 147
3 148 149 150
3 148 150 151
3 147 142 149
3 147 149 148
3 142 141 146
3 142 146 149
3 144 147 148
3 144 148 145
3 152 153 154
3 152 154 155
3 149 146 156
3 149 156 150
3 145 148 151
3 145 151 157
3 146 145 157
3 146 157 156
3 158 159 155
3 158 155 154
3 160 161 159
3 160 159 158
3 153 160 158
3 153 158 154
3 161 152 155
3 161 155 159
3 125 124 130
3 125 130 134
3 123 122 133
3 123 133 131
3 122 125 134
3 122 134 133
3 124 123 131
3 124 131 130
3 151 150 152
3 151 152 161
3 156 157 160
3 156 160 153
3 157 151 161
3 157 161 160
3 150 156 153
3 150 153 152
3 162 163 164
3 162 164 165
3 166 167 168
3 166 168 169
3 170 171 172
3 170 172 173
3 174 175 176
3 174 176 177
3 164 163 169
3 164 169 168
3 162 165 167
3 162 167 166
3 171 170 163
3 171 163 162
3 178 179 166
3 178 166 169
3 179 171 162
3 179 162 166
3 170 178 169
3 170 169 163
3 173 172 180
3 173 180 181
3 178 170 173
3 178 173 181
3 179 178 181
3 179 181 180
3 171 179 180
3 171 180 172
3 174 182 165
3 174 165 164
3 183 175 168
3 183 168 167
3 175 174 164
3 175 164 168
3 182 183 167
3 182 167 165
3 184 177 176
3 184 176 185
3 182 174 177
3 182 177 184
3 183 182 184
3 183 184 185
3 175 183 185
3 175 185 176
3 186 187 188
3 186 188 189
3 190 191 187
3 190 187 186
3 192 190 186
3 192 186 193
3 193 186 189
3 193 189 194
3 195 196 197
3 195 197 198
3 199 200 201
3 199 201 202
3 196 199 202
3 196 202 197
3 200 203 204
3 200 204 201
3 187 191 205
3 187 205 206
3 189 188 207
3 189 207 208
3 193 194 209
3 193 209 210
3 194 189 208
3 194 208 209
3 192 193 210
3 192 210 211
3 191 190 212
3 191 212 205
3 188 187 206
3 188 206 207
3 190 192 211
3 190 211 212
3 213 214 211
3 213 211 210
3 215 216 206
3 215 206 205
3 217 218 209
3 217 209 208
3 214 219 212
3 214 212 211
3 218 213 210
3 218 210 209
3 216 220 207
3 216 207 206
3 220 217 208
3 220 208 207
3 219 215 205
3 219 205 212
3 196 195 214
3 196 214 213
3 221 222 216
3 221 216 215
3 200 199 218
3 200 218 217
3 195 223 219
3 195 219 214
3 199 196 213
3 199 213 218
3 222 203 220
3 222 220 216
3 203 200 217
3 203 217 220
3 223 221 215
3 223 215 219
3 224 201 204
3 224 204 225
3 226 224 225
3 226 225 227
3 198 197 224
3 198 224 226
3 197 202 201
3 197 201 224
3 221 223 226
3 221 226 227
3 203 222 225
3 203 225 204
3 223 195 198
3 223 198 226
3 222 221 227
3 222 227 225
3 47 49 45
3 47 45 44
3 48 42 41
3 41 45 49
3 41 49 48
3 228 229 230
3 228 230 231
3 232 233 234
3 232 234 235
3 231 230 234
3 231 234 233
3 230 229 235
3 230 235 234
3 228 231 233
3 228 233 232
3 229 228 232
3 229 232 235
3 236 237 238
3 236 238 239
3 240 241 242
3 240 242 243
3 236 239 241
3 236 241 240
3 237 236 240
3 237 240 243
3 239 238 242
3 239 242 241
3 238 237 243
3 238 243 242
3 244 245 246
3 244 246 247
3 248 249 250
3 248 250 251
3 247 246 250
3 247 250 249
3 246 245 251
3 246 251 250
3 244 247 249
3 244 249 248
3 245 244 248
3 245 248 251
3 252 253 254
3 252 254 255
3 256 257 258
3 256 258 259
3 252 255 257
3 252 257 256
3 253 252 256
3 253 256 259
3 255 254 258
3 255 258 257
3 254 253 259
3 254 259 258
3 260 261 262
3 260 262 263
3 264 265 266
3 264 266 267
3 260 263 265
3 260 265 264
3 261 260 264
3 261 264 267
3 263 262 266
3 263 266 265
3 262 261 267
3 262 267 266
3 268 269 270
3 268 270 271
3 272 273 274
3 272 274 275
3 268 271 273
3 268 273 272
3 269 268 272
3 269 272 275
3 271 270 274
3 271 274 273
3 270 269 275
3 270 275 274
3 276 277 278
3 276 278 279
3 280 281 282
3 280 282 283
3 279 278 282
3 279 282 281
3 278 277 283
3 278 283 282
3 276 279 281
3 276 281 280
3 277 276 280
3 277 280 283
